<?xml version="1.0" encoding="UTF-8" standalone="no"?>
<!-- Creator: CorelDRAW X7 -->

<svg
   xml:space="preserve"
   width="256px"
   height="231px"
   version="1.1"
   shape-rendering="geometricPrecision"
   text-rendering="geometricPrecision"
   image-rendering="optimizeQuality"
   fill-rule="evenodd"
   clip-rule="evenodd"
   viewBox="0 0 1260 1138"
   id="svg8"
   xmlns="http://www.w3.org/2000/svg"
   xmlns:svg="http://www.w3.org/2000/svg"><defs
   id="defs12" />
 <g
   id="Layer_x0020_1">
  <metadata
   id="CorelCorpID_0Corel-Layer" />
  <polygon
   fill="none"
   fill-rule="nonzero"
   points="1260,1138 0,1138 0,0 1260,0 "
   id="polygon3"
   style="fill:#14324f" />
  <path
   fill="#ffffff"
   fill-rule="nonzero"
   d="m 596,365 h -10 c 0,0 -16,-4 -21,10 -6,14 -93,287 -99,293 -6,7 -11,2 -11,2 0,0 -114,-283 -116,-295 -3,-13 -20,-10 -20,-10 h -86 c -9,0 -6,9 -6,9 0,0 167,376 171,386 6,16 20,14 20,14 h 87 c 0,0 16,3 23,-17 6,-16 76,-198 119,-309 v 0 l 220,-1 c 22,0 44,10 44,40 0,29 -26,39 -44,39 H 649 c -1,0 -2,1 -4,1 -8,1 -10,7 -11,10 l -19,53 c 1,3 4,4 7,4 h 173 v 0 h 75 c 32,0 57,12 57,48 0,34 -23,46 -57,46 h -75 v 1 h -209 3 c -9,-1 -11,4 -12,8 l -25,64 v 0 0 6 c 2,6 11,6 11,6 v 0 h 311 c 88,0 160,-30 160,-127 0,-46 -27,-84 -71,-96 32,-16 54,-46 54,-83 0,-85 -77,-103 -148,-102 z"
   id="path5"
   style="display:inline" />
 </g>
</svg>
